<?xml version="1.0" standalone="no"?><!DOCTYPE svg PUBLIC "-//W3C//DTD SVG 1.1//EN" "http://www.w3.org/Graphics/SVG/1.1/DTD/svg11.dtd"><svg t="1768891591029" class="icon" viewBox="0 0 1024 1024" version="1.1" xmlns="http://www.w3.org/2000/svg" p-id="14567" xmlns:xlink="http://www.w3.org/1999/xlink" width="64" height="64"><path d="M512.047072 64.62588c-246.254543 0-445.883163 199.62862-445.883163 445.883163s199.62862 445.883163 445.883163 445.883163 445.883163-199.62862 445.883163-445.883163S758.301616 64.62588 512.047072 64.62588zM641.561821 743.301993 368.898815 743.301993c-119.712499-34.183544-77.214593-200.275349-77.214593-200.275349 26.542516 67.160609 86.865393 67.354014 86.865393 67.354014l258.052241 2.412956c74.93569-8.55791 103.890138-72.179926 103.890138-72.178903C777.789459 754.964614 641.561821 743.301993 641.561821 743.301993zM690.974207 538.254967c-67.562768-0.00614-91.692329-82.09474-91.692329-82.09474s0.343831 80.419588-86.119403 82.013899l0 0.070608c-0.384763 0-0.73678-0.030699-1.11745-0.034792-0.381693 0.004093-0.732687 0.033769-1.11745 0.034792l0-0.070608c-86.462211-1.593288-86.119403-82.013899-86.119403-82.013899s-24.12956 82.0886-91.692329 82.09474c-103.756085 0.00921-82.039481-84.506672-82.039481-84.506672l16.987906-120.937396c0 0 2.338255-47.591925 36.097126-55.207369L510.930645 277.603529l2.232854 0 206.765157 0c33.759895 7.615445 36.097126 55.207369 36.097126 55.207369l16.987906 120.937396C773.014712 453.748295 794.730293 538.263154 690.974207 538.254967z" fill="#2563eb" p-id="14568"></path></svg>