<?xml version="1.0" standalone="no"?><!DOCTYPE svg PUBLIC "-//W3C//DTD SVG 1.1//EN" "http://www.w3.org/Graphics/SVG/1.1/DTD/svg11.dtd"><svg t="1776827811848" class="icon" viewBox="0 0 1152 1024" version="1.1" xmlns="http://www.w3.org/2000/svg" p-id="1961" id="mx_n_1776827811849" width="144" height="128" xmlns:xlink="http://www.w3.org/1999/xlink"><path d="M843.477333 544.426667a150.826667 150.826667 0 0 1-139.946666 95.061333 150.826667 150.826667 0 0 1-139.946667-95.018667 152.490667 152.490667 0 0 1-141.482667 95.018667 150.826667 150.826667 0 0 1-139.946666-95.018667 152.490667 152.490667 0 0 1-184.874667 88.576v314.965334c0 29.269333 32.170667 65.066667 61.141333 65.066666H967.253333c28.885333 0 61.098667-35.797333 61.098667-65.066666V633.173333a152.490667 152.490667 0 0 1-184.874667-88.746666z m182.442667-403.456H96.512L0 396.373333c0 76.458667 62.72 139.946667 139.946667 139.946667 77.141333 0 141.482667-61.824 141.482666-139.946667 0 76.458667 62.72 139.946667 139.946667 139.946667 77.141333 0 141.44-61.824 141.44-139.946667 0 76.458667 62.72 139.946667 139.946667 139.946667a139.392 139.392 0 0 0 139.818666-139.946667c0 76.458667 62.762667 139.946667 141.525334 139.946667 77.226667 0 141.525333-61.824 141.525333-139.946667l-99.712-255.402666zM160.853333 97.621333h804.010667c27.349333 0 48.213333-21.162667 48.213333-48.810666 0-27.648-20.864-48.810667-48.213333-48.810667H160.810667c-27.349333 0-48.213333 21.162667-48.213334 48.810667 0 27.648 20.864 48.810667 48.213334 48.810666z" fill="#2563eb" p-id="1962"></path></svg>